# xmcd CD database file
#
# Track frame offsets:
#	150
#	15397
#	43780
#	64567
#	90755
#	115179
#	133940
#	159757
#	177435
#	204772
#
# Disc length: 2998 seconds
#
# Revision: 0
# Processed by: cddbd v1.5.2PL0 Copyright (c) Steve Scherf et al.
# Submitted via: CDex 1.70beta2
#
DISCID=700bb40a
DTITLE=Anno - Álvadansur
DYEAR=2005
DGENRE=New Age
TTITLE0=Vinalag | Friendly
TTITLE1=Mót landi | Ship to Shore
TTITLE2=Alma í A-mol | Alma in A-minor
TTITLE3=Dráttur | Linns
TTITLE4=Marita | Marita
TTITLE5=Yvir fjøll | Crossing Mountains
TTITLE6=Mariann | Mariann
TTITLE7=Álvadansur | Alfs Dancing
TTITLE8=Gloymdur | Forgotten
TTITLE9=Tung spor | Silent Steps
EXTD=YEAR: 2005
EXTT0=
EXTT1=
EXTT2=
EXTT3=
EXTT4=
EXTT5=
EXTT6=
EXTT7=
EXTT8=
EXTT9=
PLAYORDER=
